<?xml version="1.0" encoding="UTF-8"?>
<svg width="35px" height="35px" viewBox="0 0 35 35" version="1.1" xmlns="http://www.w3.org/2000/svg" xmlns:xlink="http://www.w3.org/1999/xlink">
    <title>Group 8</title>
    <defs>
        <polygon id="path-1" points="0 0 35 0 35 35 0 35"></polygon>
    </defs>
    <g id="HOME" stroke="none" stroke-width="1" fill="none" fill-rule="evenodd">
        <g id="Menu" transform="translate(-255.000000, -859.000000)">
            <rect fill="#3C3F3C" x="0" y="0" width="1920" height="1080"></rect>
            <g id="Group-8" transform="translate(255.000000, 859.000000)">
                <path d="M17.4713827,23.3941443 C14.2535574,23.3881985 11.5966452,20.715208 11.6013063,17.4873579 C11.6059797,14.2701048 14.2802878,11.6136457 17.5104175,11.6199925 C20.7384258,11.6255143 23.3932166,14.2883317 23.3872864,17.5140624 C23.3817607,20.7584438 20.7239999,23.400491 17.4713827,23.3941443 M17.6173389,8.54517468 C12.5636051,8.48371201 8.55787088,12.5139679 8.52756682,17.4021579 C8.49677293,22.4573569 12.4808683,26.4681143 17.4828386,26.4732049 C22.4568056,26.4778635 26.4664371,22.4777032 26.4664371,17.5098236 C26.4867245,12.6233291 22.5433611,8.60451795 17.6173389,8.54517468" id="Fill-1" fill="#FFFFF4"></path>
                <g id="Group-5">
                    <mask id="mask-2" fill="white">
                        <use xlink:href="#path-1"></use>
                    </mask>
                    <g id="Clip-4"></g>
                    <path d="M31.8981359,22.3770315 C31.8624954,23.6868223 31.8043675,25.0029713 31.6299838,26.2996218 C31.3961993,28.0354125 30.604896,29.4999196 29.1389695,30.5358836 C28.1732825,31.2183312 27.0726708,31.556164 25.9135069,31.6930774 C25.1476611,31.7825162 24.3750267,31.8473699 23.6045136,31.8533042 C19.9377881,31.8838236 16.2706383,31.9134953 12.6034885,31.8918773 C11.2139345,31.8842475 9.81504603,31.8626296 8.44076648,31.5913461 C6.57685475,31.2234178 5.090138,30.2946956 4.13590684,28.6207915 C3.64712325,27.7628573 3.37684968,26.820147 3.29071855,25.8392875 C3.20543599,24.8686012 3.13415505,23.893676 3.12524494,22.9204464 C3.09342309,19.5412709 3.06754132,16.1612477 3.08960447,12.7816484 C3.09851458,11.3480846 3.11124332,9.90561918 3.3908513,8.48901051 C3.64288034,7.21101077 4.1524542,6.05593638 5.09353233,5.12000822 C6.02612463,4.19213378 7.16195247,3.64659957 8.44034219,3.43169215 C9.32117095,3.28333397 10.2198199,3.17948324 11.1116803,3.16931011 C14.9027231,3.12565042 18.6946146,3.10148923 22.4852332,3.12056385 C23.8306609,3.12734594 25.1849988,3.15150713 26.5160006,3.41388917 C28.1452792,3.73434283 29.524226,4.46807999 30.5111276,5.83975732 C31.1908423,6.78458698 31.5362154,7.86336288 31.6864145,9.00148205 C31.7810315,9.72080727 31.8361894,10.4486101 31.8518881,11.1742935 C31.8972873,13.2932722 31.914259,15.4130986 31.9426865,17.5329251 C31.9312306,17.5329251 31.920199,17.5329251 31.9083189,17.533349 C31.9083189,19.1479098 31.9422622,20.7633184 31.8981359,22.3770315 M34.7799225,8.8416791 C34.6148731,7.41659282 34.2338595,6.0512737 33.50917,4.80887992 C32.1348904,2.45125653 30.0601059,1.04821204 27.4150739,0.45011664 C25.7569435,0.0758301498 24.0661426,0.0465823946 22.3825547,0.0398003064 C18.3085095,0.021997325 14.2314943,-0.0814295195 10.1595706,0.138564465 C9.21637099,0.189854007 8.26765562,0.322952487 7.34439773,0.523871849 C5.58655883,0.90705983 4.06123157,1.75185369 2.80320783,3.05062357 C1.48366186,4.41297553 0.733090527,6.06102295 0.362684212,7.90278377 C0.0300398248,9.5571894 0.0211297073,11.2370279 0.00882525926,12.9096604 C-0.0170565107,16.3507223 0.0198568333,19.7926321 0.0381013597,23.2341179 C0.0448900207,24.4582848 0.100896474,25.6803324 0.31643646,26.8896635 C0.681751278,28.9348869 1.51845374,30.7389224 3.03147656,32.2004624 C4.25088978,33.3788502 5.70790614,34.1075008 7.34227627,34.5169693 C8.83578169,34.8904081 10.3632304,34.9433931 11.8872848,34.9760319 C13.7422864,35.0154528 15.5989852,34.9853573 17.4548354,34.9853573 L17.4548354,34.9980737 C18.485439,34.9980737 19.515194,35.0031603 20.5453733,34.9968021 C22.5509983,34.9857812 24.5591691,35.0137573 26.5503682,34.7217036 C28.7380142,34.4008261 30.668964,33.5492501 32.223143,31.9300266 C33.498987,30.6007373 34.2334353,29.00186 34.6110545,27.2232574 C34.9254544,25.7405234 34.9615191,24.2298133 34.9784908,22.7237658 C35.0094641,19.9477723 34.9980082,17.1705072 34.9975839,14.393666 C34.9971596,12.5404604 34.9929167,10.686831 34.7799225,8.8416791" id="Fill-3" fill="#FFFFF4" mask="url(#mask-2)"></path>
                </g>
                <path d="M26.8327341,6.09651164 C25.6943605,6.10290235 24.7727998,7.0303529 24.7732239,8.16889595 C24.7736483,9.33075243 25.6888447,10.2395522 26.8552215,10.2370143 C28.0025052,10.2340418 28.9185502,9.31634049 28.9147434,8.17313476 C28.9109129,7.01763649 27.9812906,6.09018593 26.8327341,6.09651164" id="Fill-6" fill="#FFFFF4"></path>
            </g>
        </g>
    </g>
</svg>