<?xml version="1.0" encoding="UTF-8"?>
<svg width="35px" height="35px" viewBox="0 0 35 35" version="1.1" xmlns="http://www.w3.org/2000/svg" xmlns:xlink="http://www.w3.org/1999/xlink">
    <title>Group 3</title>
    <defs>
        <polygon id="path-1" points="0 0 35 0 35 35 0 35"></polygon>
    </defs>
    <g id="HOME" stroke="none" stroke-width="1" fill="none" fill-rule="evenodd">
        <g id="Menu" transform="translate(-308.000000, -859.000000)">
            <g id="Group-3" transform="translate(308.000000, 859.000000)">
                <mask id="mask-2" fill="white">
                    <use xlink:href="#path-1"></use>
                </mask>
                <g id="Clip-2"></g>
                <path d="M24.9420548,-4.09879741e-05 L10.0581092,-4.09879741e-05 C4.50342542,-4.09879741e-05 -0.000327903409,4.50289785 -0.000327903409,10.057998 L-0.000327903409,24.941961 C-0.000327903409,30.4966513 4.50342542,35 10.0581092,35 L17.9900926,35 L17.9900926,23.1778386 C17.9900926,23.0581537 17.9900926,23.0581537 17.8695881,23.0581537 L14.0126243,23.0581537 L13.8802333,23.0581537 L13.8802333,18.2715781 L14.0048366,18.2715781 L17.8781956,18.2715781 C17.9900926,18.2715781 17.9900926,18.2715781 17.9900926,18.1617303 C17.9900926,17.0862059 17.9843543,16.0106815 17.9933717,14.935157 C17.9962408,14.5293761 18.0204237,14.1227754 18.0552634,13.718634 C18.1023996,13.1685753 18.2290522,12.6332724 18.4159572,12.1139548 C18.8471502,10.9171059 19.5837032,9.96372564 20.6825895,9.30791806 C21.6671195,8.72097027 22.7475612,8.47094363 23.882107,8.45167928 C24.5633263,8.44061252 25.2457753,8.46233615 25.9274045,8.48651906 C26.4094225,8.50332412 26.8906208,8.54718126 27.371819,8.58161116 C27.5201953,8.59267791 27.6681618,8.61440153 27.8185874,8.63079672 L27.8185874,12.9128104 L27.7058706,12.9128104 C26.9254605,12.9128104 26.1446405,12.9103511 25.3638205,12.91404 C24.9793538,12.9156795 24.5957068,12.9374032 24.2223068,13.0427423 C23.661592,13.200546 23.2631893,13.5341881 23.0799733,14.0994122 C22.9938987,14.3658341 22.9479922,14.6408634 22.9463527,14.9187618 C22.9397946,15.9996147 22.9414341,17.0808775 22.9397946,18.1617303 C22.9397946,18.2715781 22.9402045,18.2715781 23.0533311,18.2715781 L27.5406893,18.2715781 L27.6624234,18.2715781 C27.6497172,18.3650307 27.6390603,18.4449572 27.6288133,18.5248838 C27.5669216,19.0114111 27.5066693,19.4975284 27.4439578,19.9836458 C27.3808364,20.4693533 27.3152557,20.9550608 27.2525442,21.4411782 C27.1857339,21.9592662 27.1193334,22.477764 27.0545725,22.9962619 C27.0492441,23.0417585 27.0287501,23.0581537 26.9865325,23.057334 C26.9566114,23.0569241 26.9266902,23.0581537 26.8963591,23.0581537 L23.063988,23.0581537 C22.9402045,23.0581537 22.9397946,23.0581537 22.9397946,23.1839868 L22.9397946,29.2600441 L22.9397946,35 L24.9420548,35 C30.4971484,35 35.000082,30.4966513 35.000082,24.941961 L35.000082,10.057998 C35.000082,4.50289785 30.4971484,-4.09879741e-05 24.9420548,-4.09879741e-05" id="Fill-1" fill="#FFFFF4" mask="url(#mask-2)"></path>
            </g>
        </g>
    </g>
</svg>