<svg width="50" height="50" viewBox="0 0 50 50" fill="none" xmlns="http://www.w3.org/2000/svg">
<circle cx="25" cy="25" r="25" fill="black"/>
<path d="M27.75 13.5938C26.2167 13.5938 24.7462 14.2028 23.662 15.287C22.5778 16.3712 21.9687 17.8417 21.9687 19.375V22.5938H18.875C18.7197 22.5938 18.5938 22.7197 18.5938 22.875V27.125C18.5938 27.2803 18.7197 27.4062 18.875 27.4062H21.9687V36.125C21.9687 36.2803 22.0947 36.4062 22.25 36.4062H26.5C26.6553 36.4062 26.7812 36.2803 26.7812 36.125V27.4062H29.9024C30.0315 27.4062 30.144 27.3184 30.1753 27.1932L31.2378 22.9432C31.2821 22.7657 31.1479 22.5938 30.9649 22.5938H26.7812V19.375C26.7812 19.1181 26.8833 18.8717 27.065 18.69C27.2467 18.5083 27.4931 18.4062 27.75 18.4062H31C31.1553 18.4062 31.2812 18.2803 31.2812 18.125V13.875C31.2812 13.7197 31.1553 13.5938 31 13.5938H27.75Z" fill="white"/>
</svg>
