<?xml version="1.0" encoding="UTF-8"?>
<svg width="180px" height="41px" viewBox="0 0 180 41" version="1.1" xmlns="http://www.w3.org/2000/svg" xmlns:xlink="http://www.w3.org/1999/xlink">
    <title>Logo</title>
    <g id="HOME" stroke="none" stroke-width="1" fill="none" fill-rule="evenodd">
        <g id="Home-1-/-ingresso" transform="translate(-870.000000, -78.000000)" fill="#FFFFF4">
            <g id="Logo" transform="translate(870.288816, 78.000000)">
                <path d="M20.0746802,20.8319217 C25.7350889,20.8319217 26.9021081,16.4308824 26.9021081,11.6188798 C26.9021081,7.39377318 26.610421,2.34728448 20.0746802,2.34728448 L13.2469814,2.34728448 L13.2469814,20.8319217 L20.0746802,20.8319217 Z M-4.26325641e-14,0.880180617 L18.8491611,0.880180617 C26.260234,0.880180617 35.1305549,2.40583791 35.1305549,11.6777056 C35.1305549,19.8928881 26.610421,22.2990256 19.8997221,22.2990256 L13.2469814,22.2990256 L13.2469814,38.6122837 L19.4325352,38.6122837 L19.4325352,40.0793876 L-4.26325641e-14,40.0793876 L-4.26325641e-14,38.6122837 L5.77740856,38.6122837 L5.77740856,2.34728448 L-4.26325641e-14,2.34728448 L-4.26325641e-14,0.880180617 Z" id="Fill-1"></path>
                <path d="M50.1856713,28.3431286 C46.5676138,28.3431286 41.7240373,28.8126454 41.7240373,33.5658222 C41.7240373,36.14762 42.7745983,38.0842407 45.5173237,38.0842407 C47.559675,38.0842407 49.0768812,36.4997576 49.7772552,34.6219627 C50.1274422,33.7417549 50.1856713,32.6856144 50.1856713,31.5706481 L50.1856713,28.3431286 Z M50.1856713,19.7758084 C50.1856713,18.2498788 47.326217,17.6632551 46.3341558,17.6632551 C44.1165756,17.6632551 41.3738503,18.7779491 42.2491824,19.8929153 C42.5993694,20.3624321 43.0662854,21.5947776 43.0662854,22.7097438 C43.0662854,24.2354011 41.6073083,25.2915416 40.265331,25.2915416 C38.631125,25.2915416 37.2306478,24.4113338 37.2306478,22.5335389 C37.2306478,18.0739462 42.9495564,16.4894631 46.5093848,16.4894631 C49.0186521,16.4894631 51.7031483,16.9001541 53.9789576,18.0739462 C55.6128928,18.8953283 56.1380379,19.8343619 56.1380379,21.6536034 L56.1380379,37.2625863 C56.1380379,38.0254149 56.8381411,38.3775525 57.5385151,38.3775525 C58.2388891,38.3775525 59.1142213,37.4973447 59.5811373,37.0278279 L60.2812404,37.8494823 C58.7640342,39.7272772 57.1883281,40.9596226 54.7375607,40.9596226 C52.1697935,40.9596226 50.5358583,39.3751396 50.1856713,36.7930695 C48.0848201,39.3751396 44.9336786,40.9596226 41.6658082,40.9596226 C38.164209,40.9596226 35.5967126,39.023002 35.5967126,35.2674122 C35.5967126,28.2843028 44.9336786,26.8171989 50.1856713,27.1107831 L50.1856713,19.7758084 Z" id="Fill-3"></path>
                <path d="M69.8517187,34.5045835 C69.8517187,37.321412 70.8437798,39.786103 74.0534211,39.786103 C77.6129786,39.786103 81.056078,35.9716874 81.056078,32.4505836 L81.056078,26.2305752 C81.056078,22.5335389 78.6635397,17.6632551 74.1698793,17.6632551 C70.3186347,17.6632551 69.8517187,20.7145697 69.8517187,24.0591962 L69.8517187,34.5045835 Z M81.056078,36.0890666 L80.939349,36.0890666 C79.5388718,39.1992069 76.7961464,40.9596226 73.1195891,40.9596226 C70.0266768,40.9596226 68.4512415,39.8446564 66.2336613,37.9083081 C63.899352,35.8543082 62.732062,31.9227857 62.732062,28.8711988 C62.732062,23.0616091 67.8090966,16.4894631 73.8781922,16.4894631 C77.6714786,16.4894631 80.2392458,18.7193956 80.939349,21.4773984 L81.056078,21.4773984 L81.056078,2.34731172 L76.8543755,2.34731172 L76.8543755,0.880207851 C80.4142039,0.997587054 83.9155323,0.645449445 87.3586316,0 L87.3586316,38.6123109 L91.5600632,38.6123109 L91.5600632,40.0794148 C88.1754638,40.0794148 84.7908644,39.9032098 81.056078,40.5486593 L81.056078,36.0890666 Z" id="Fill-5"></path>
                <path d="M105.97382,17.6631734 C100.255182,17.6631734 100.663598,22.2404177 100.663598,28.8711171 C100.663598,36.4999483 100.780057,39.7860213 105.97382,39.7860213 C111.167584,39.7860213 111.284313,36.4999483 111.284313,28.8711171 C111.284313,22.2404177 111.692729,17.6631734 105.97382,17.6631734 M118.22874,28.8711171 C118.22874,35.4435354 112.568332,40.9595409 105.97382,40.9595409 C99.3795794,40.9595409 93.7191706,35.4435354 93.7191706,28.8711171 C93.7191706,22.2989711 99.3795794,16.4893814 105.97382,16.4893814 C112.568332,16.4893814 118.22874,22.2989711 118.22874,28.8711171 Z" id="Fill-7"></path>
                <path d="M136.610742,28.3431286 C132.992684,28.3431286 128.149108,28.8126454 128.149108,33.5658222 C128.149108,36.14762 129.199669,38.0842407 131.942394,38.0842407 C133.984745,38.0842407 135.501952,36.4997576 136.202326,34.6219627 C136.552513,33.7417549 136.610742,32.6856144 136.610742,31.5706481 L136.610742,28.3431286 Z M136.610742,19.7758084 C136.610742,18.2498788 133.751287,17.6632551 132.759226,17.6632551 C130.541917,17.6632551 127.798921,18.7779491 128.674253,19.8929153 C129.02444,20.3624321 129.491356,21.5947776 129.491356,22.7097438 C129.491356,24.2354011 128.032379,25.2915416 126.690131,25.2915416 C125.056195,25.2915416 123.655718,24.4113338 123.655718,22.5335389 C123.655718,18.0739462 129.374627,16.4894631 132.934455,16.4894631 C135.443452,16.4894631 138.128219,16.9001541 140.404028,18.0739462 C142.037963,18.8953283 142.563379,19.8343619 142.563379,21.6536034 L142.563379,37.2625863 C142.563379,38.0254149 143.263212,38.3775525 143.963586,38.3775525 C144.66396,38.3775525 145.539292,37.4973447 146.005937,37.0278279 L146.706311,37.8494823 C145.189105,39.7272772 143.613399,40.9596226 141.162631,40.9596226 C138.594864,40.9596226 136.960929,39.3751396 136.610742,36.7930695 C134.50989,39.3751396 131.358749,40.9596226 128.090879,40.9596226 C124.589279,40.9596226 122.021783,39.023002 122.021783,35.2674122 C122.021783,28.2843028 131.358749,26.8171989 136.610742,27.1107831 L136.610742,19.7758084 Z" id="Fill-9"></path>
                <path d="M159.486322,22.1229023 L159.603051,22.1229023 C161.470444,18.4846917 164.096441,16.4895176 168.298143,16.4895176 C176.059403,16.4895176 175.417529,21.9469697 175.417529,27.756287 L175.417529,38.6123654 L179.093815,38.6123654 L179.093815,40.0794693 L165.555418,40.0794693 L165.555418,38.6123654 L169.231704,38.6123654 L169.231704,28.0495988 C169.231704,22.5924191 169.81562,18.6020709 165.905605,18.6020709 C163.396337,18.6020709 161.120257,21.3012479 160.245196,23.472627 C159.486322,25.4089753 159.486322,28.1084246 159.486322,30.8664274 L159.486322,38.6123654 L163.162879,38.6123654 L163.162879,40.0794693 L149.332524,40.0794693 L149.332524,38.6123654 L153.300497,38.6123654 L153.300497,18.308759 L149.332524,18.308759 L149.332524,16.8416552 C152.308436,16.9590344 155.868265,16.724276 159.486322,16.6068968 L159.486322,22.1229023 Z" id="Fill-11"></path>
            </g>
        </g>
    </g>
</svg>