<?xml version="1.0" encoding="UTF-8"?>
<svg width="181px" height="50px" viewBox="0 0 181 50" version="1.1" xmlns="http://www.w3.org/2000/svg" xmlns:xlink="http://www.w3.org/1999/xlink">
    <title>Logo</title>
    <defs>
        <polygon id="path-1" points="0 50 180.357143 50 180.357143 0 0 0"></polygon>
    </defs>
    <g id="HOME" stroke="none" stroke-width="1" fill="none" fill-rule="evenodd">
        <g id="Home-1" transform="translate(-111.000000, -62.000000)">
            <g id="Logo" transform="translate(111.000000, 62.000000)">
                <path d="M20.3634964,20.8319217 C26.0239052,20.8319217 27.1909244,16.4308824 27.1909244,11.6188798 C27.1909244,7.39377318 26.8992373,2.34728448 20.3634964,2.34728448 L13.5357977,2.34728448 L13.5357977,20.8319217 L20.3634964,20.8319217 Z M0.288816262,0.880180617 L19.1379773,0.880180617 C26.5490503,0.880180617 35.4193712,2.40583791 35.4193712,11.6777056 C35.4193712,19.8928881 26.8992373,22.2990256 20.1885383,22.2990256 L13.5357977,22.2990256 L13.5357977,38.6122837 L19.7213515,38.6122837 L19.7213515,40.0793876 L0.288816262,40.0793876 L0.288816262,38.6122837 L6.06622482,38.6122837 L6.06622482,2.34728448 L0.288816262,2.34728448 L0.288816262,0.880180617 Z" id="Fill-1" fill="#FFFFF4"></path>
                <path d="M50.4744875,28.3431286 C46.8564301,28.3431286 42.0128536,28.8126454 42.0128536,33.5658222 C42.0128536,36.14762 43.0634146,38.0842407 45.8061399,38.0842407 C47.8484912,38.0842407 49.3656974,36.4997576 50.0660714,34.6219627 C50.4162585,33.7417549 50.4744875,32.6856144 50.4744875,31.5706481 L50.4744875,28.3431286 Z M50.4744875,19.7758084 C50.4744875,18.2498788 47.6150332,17.6632551 46.6229721,17.6632551 C44.4053919,17.6632551 41.6626666,18.7779491 42.5379987,19.8929153 C42.8881857,20.3624321 43.3551017,21.5947776 43.3551017,22.7097438 C43.3551017,24.2354011 41.8961246,25.2915416 40.5541473,25.2915416 C38.9199412,25.2915416 37.519464,24.4113338 37.519464,22.5335389 C37.519464,18.0739462 43.2383727,16.4894631 46.798201,16.4894631 C49.3074683,16.4894631 51.9919646,16.9001541 54.2677739,18.0739462 C55.9017091,18.8953283 56.4268542,19.8343619 56.4268542,21.6536034 L56.4268542,37.2625863 C56.4268542,38.0254149 57.1269574,38.3775525 57.8273314,38.3775525 C58.5277054,38.3775525 59.4030375,37.4973447 59.8699535,37.0278279 L60.5700567,37.8494823 C59.0528505,39.7272772 57.4771444,40.9596226 55.026377,40.9596226 C52.4586098,40.9596226 50.8246745,39.3751396 50.4744875,36.7930695 C48.3736363,39.3751396 45.2224949,40.9596226 41.9546245,40.9596226 C38.4530252,40.9596226 35.8855288,39.023002 35.8855288,35.2674122 C35.8855288,28.2843028 45.2224949,26.8171989 50.4744875,27.1107831 L50.4744875,19.7758084 Z" id="Fill-3" fill="#FFFFF4"></path>
                <path d="M70.140535,34.5045835 C70.140535,37.321412 71.1325961,39.786103 74.3422374,39.786103 C77.9017949,39.786103 81.3448942,35.9716874 81.3448942,32.4505836 L81.3448942,26.2305752 C81.3448942,22.5335389 78.9523559,17.6632551 74.4586956,17.6632551 C70.607451,17.6632551 70.140535,20.7145697 70.140535,24.0591962 L70.140535,34.5045835 Z M81.3448942,36.0890666 L81.2281652,36.0890666 C79.827688,39.1992069 77.0849627,40.9596226 73.4084054,40.9596226 C70.315493,40.9596226 68.7400577,39.8446564 66.5224775,37.9083081 C64.1881683,35.8543082 63.0208783,31.9227857 63.0208783,28.8711988 C63.0208783,23.0616091 68.0979128,16.4894631 74.1670085,16.4894631 C77.9602948,16.4894631 80.528062,18.7193956 81.2281652,21.4773984 L81.3448942,21.4773984 L81.3448942,2.34731172 L77.1431918,2.34731172 L77.1431918,0.880207851 C80.7030201,0.997587054 84.2043486,0.645449445 87.6474479,0 L87.6474479,38.6123109 L91.8488795,38.6123109 L91.8488795,40.0794148 C88.4642801,40.0794148 85.0796807,39.9032098 81.3448942,40.5486593 L81.3448942,36.0890666 Z" id="Fill-5" fill="#FFFFF4"></path>
                <path d="M106.262636,17.6631734 C100.543999,17.6631734 100.952415,22.2404177 100.952415,28.8711171 C100.952415,36.4999483 101.068873,39.7860213 106.262636,39.7860213 C111.4564,39.7860213 111.573129,36.4999483 111.573129,28.8711171 C111.573129,22.2404177 111.981545,17.6631734 106.262636,17.6631734 M106.262636,16.4893814 C112.857148,16.4893814 118.517557,22.2989711 118.517557,28.8711171 C118.517557,35.4435354 112.857148,40.9595409 106.262636,40.9595409 C99.6683956,40.9595409 94.0079869,35.4435354 94.0079869,28.8711171 C94.0079869,22.2989711 99.6683956,16.4893814 106.262636,16.4893814" id="Fill-7" fill="#FFFFF4"></path>
                <path d="M136.899558,28.3431286 C133.281501,28.3431286 128.437924,28.8126454 128.437924,33.5658222 C128.437924,36.14762 129.488485,38.0842407 132.23121,38.0842407 C134.273562,38.0842407 135.790768,36.4997576 136.491142,34.6219627 C136.841329,33.7417549 136.899558,32.6856144 136.899558,31.5706481 L136.899558,28.3431286 Z M136.899558,19.7758084 C136.899558,18.2498788 134.040104,17.6632551 133.048043,17.6632551 C130.830733,17.6632551 128.087737,18.7779491 128.963069,19.8929153 C129.313256,20.3624321 129.780172,21.5947776 129.780172,22.7097438 C129.780172,24.2354011 128.321195,25.2915416 126.978947,25.2915416 C125.345012,25.2915416 123.944534,24.4113338 123.944534,22.5335389 C123.944534,18.0739462 129.663443,16.4894631 133.223271,16.4894631 C135.732268,16.4894631 138.417035,16.9001541 140.692844,18.0739462 C142.32678,18.8953283 142.852195,19.8343619 142.852195,21.6536034 L142.852195,37.2625863 C142.852195,38.0254149 143.552028,38.3775525 144.252402,38.3775525 C144.952776,38.3775525 145.828108,37.4973447 146.294753,37.0278279 L146.995127,37.8494823 C145.477921,39.7272772 143.902215,40.9596226 141.451447,40.9596226 C138.88368,40.9596226 137.249745,39.3751396 136.899558,36.7930695 C134.798707,39.3751396 131.647565,40.9596226 128.379695,40.9596226 C124.878096,40.9596226 122.310599,39.023002 122.310599,35.2674122 C122.310599,28.2843028 131.647565,26.8171989 136.899558,27.1107831 L136.899558,19.7758084 Z" id="Fill-9" fill="#FFFFF4"></path>
                <path d="M159.775138,22.1229023 L159.891867,22.1229023 C161.759261,18.4846917 164.385257,16.4895176 168.586959,16.4895176 C176.348219,16.4895176 175.706345,21.9469697 175.706345,27.756287 L175.706345,38.6123654 L179.382632,38.6123654 L179.382632,40.0794693 L165.844234,40.0794693 L165.844234,38.6123654 L169.520521,38.6123654 L169.520521,28.0495988 C169.520521,22.5924191 170.104436,18.6020709 166.194421,18.6020709 C163.685154,18.6020709 161.409074,21.3012479 160.534012,23.472627 C159.775138,25.4089753 159.775138,28.1084246 159.775138,30.8664274 L159.775138,38.6123654 L163.451696,38.6123654 L163.451696,40.0794693 L149.62134,40.0794693 L149.62134,38.6123654 L153.589314,38.6123654 L153.589314,18.308759 L149.62134,18.308759 L149.62134,16.8416552 C152.597253,16.9590344 156.157081,16.724276 159.775138,16.6068968 L159.775138,22.1229023 Z" id="Fill-11" fill="#FFFFF4"></path>
                <mask id="mask-2" fill="white">
                    <use xlink:href="#path-1"></use>
                </mask>
                <g id="Clip-14"></g>
                <polygon id="Fill-13" fill="#FFFFF4" mask="url(#mask-2)" points="0 50 180.357143 50 180.357143 46.6412118 0 46.6412118"></polygon>
            </g>
        </g>
    </g>
</svg>