<svg width="50" height="50" viewBox="0 0 50 50" fill="none" xmlns="http://www.w3.org/2000/svg">
<circle cx="25" cy="25" r="25" fill="black"/>
<path d="M24.9181 12.9688C22.1288 12.9877 19.4327 13.9753 17.2911 15.7626C15.1496 17.5499 13.6956 20.0257 13.1778 22.7666C12.6601 25.5076 13.1108 28.3432 14.4529 30.7885C15.795 33.2338 17.9451 35.1367 20.5353 36.1719C20.3612 35.0327 20.3612 33.8736 20.5353 32.7344L21.9532 26.7188C21.7288 26.1739 21.6177 25.5891 21.6267 25C21.6267 23.3328 22.5978 22.0781 23.8009 22.0781C24.0189 22.0748 24.2349 22.1187 24.4344 22.2067C24.6338 22.2948 24.8118 22.4248 24.9563 22.5881C25.1008 22.7513 25.2082 22.9438 25.2713 23.1525C25.3345 23.3611 25.3517 23.5809 25.322 23.7969C25.322 24.4617 25.0505 25.3408 24.7655 26.2639C24.6085 26.7726 24.4473 27.2947 24.3251 27.8016C24.2511 28.0676 24.2423 28.3476 24.2995 28.6177C24.3566 28.8879 24.478 29.1403 24.6534 29.3536C24.8287 29.5669 25.0529 29.7348 25.3069 29.8431C25.5609 29.9514 25.8373 29.9969 26.1126 29.9758C28.2439 29.9758 29.8939 27.7156 29.8939 24.4672C29.9153 23.8071 29.7989 23.1498 29.5521 22.5372C29.3053 21.9246 28.9336 21.3701 28.4605 20.9092C27.9875 20.4483 27.4236 20.0911 26.8048 19.8603C26.186 19.6295 25.5258 19.5302 24.8665 19.5688C24.1626 19.5385 23.4599 19.6514 22.8009 19.9007C22.1419 20.1499 21.5403 20.5302 21.0325 21.0187C20.5248 21.5072 20.1214 22.0936 19.8469 22.7425C19.5723 23.3914 19.4323 24.0892 19.4353 24.7937C19.4257 25.7753 19.7265 26.7347 20.2947 27.5352C20.336 27.5811 20.3654 27.6364 20.3804 27.6963C20.3954 27.7563 20.3954 27.8189 20.3806 27.8789C20.286 28.2572 20.0798 29.0821 20.0454 29.2453C20.0111 29.4086 19.865 29.5117 19.6415 29.4086C18.1376 28.7039 17.2009 26.5125 17.2009 24.7422C17.2009 20.9523 19.9595 17.4633 25.1501 17.4633C29.3181 17.4633 32.5665 20.4367 32.5665 24.4156C32.5665 28.5578 29.9884 31.8922 26.3189 31.8922C25.7809 31.9109 25.2468 31.7949 24.7651 31.5548C24.2833 31.3147 23.8692 30.958 23.5603 30.5172L22.8126 33.3789C22.4542 34.4911 21.9515 35.5514 21.3173 36.5328C22.4859 36.8782 23.6997 37.0462 24.9181 37.0312C28.109 37.0312 31.1692 35.7637 33.4255 33.5074C35.6818 31.2511 36.9493 28.1909 36.9493 25C36.9493 21.8091 35.6818 18.7489 33.4255 16.4926C31.1692 14.2363 28.109 12.9688 24.9181 12.9688Z" fill="white"/>
</svg>
