<svg width="50" height="50" viewBox="0 0 50 50" fill="none" xmlns="http://www.w3.org/2000/svg">
<circle cx="25" cy="25" r="25" fill="black"/>
<path d="M30.3206 31.4427C30.2752 31.3045 30.1221 31.2347 29.985 31.283C29.4983 31.4545 28.9878 31.5508 28.471 31.5682C28.1808 31.5998 27.8873 31.5644 27.613 31.4647C27.3387 31.365 27.0909 31.2036 26.8887 30.993C26.6866 30.7825 26.5355 30.5283 26.447 30.2502C26.3605 29.978 26.3362 29.6898 26.3759 29.4071C26.3776 29.3948 26.3786 29.3824 26.3786 29.3699V22.5992H30.4878C30.6259 22.5992 30.7378 22.4872 30.7378 22.3492V19.5798C30.7378 19.4417 30.6259 19.3298 30.4878 19.3298H26.3786V14C26.3786 13.8619 26.2667 13.75 26.1286 13.75H23.1964C23.1549 13.7528 23.1161 13.7712 23.0878 13.8016C23.0594 13.8319 23.0437 13.8719 23.0438 13.9135C22.9751 15.2036 22.5326 16.4458 21.7702 17.4888C21.0418 18.4853 20.0515 19.2587 18.9108 19.7243C18.8145 19.7636 18.75 19.8563 18.75 19.9602V22.3492C18.75 22.4872 18.8619 22.5992 19 22.5992H20.9296V29.7265C20.9296 32.1567 22.7278 35.6223 27.4684 35.546C28.983 35.546 30.6631 34.9226 31.1735 34.3665C31.226 34.3093 31.2358 34.2278 31.2116 34.1541L30.3206 31.4427Z" fill="white"/>
</svg>
