<svg width="50" height="50" viewBox="0 0 50 50" fill="none" xmlns="http://www.w3.org/2000/svg">
<circle cx="25" cy="25" r="25" fill="black"/>
<path d="M37.2625 17.784C37.3349 17.6831 37.2279 17.5527 37.112 17.5976C36.2886 17.9168 35.4281 18.1321 34.5503 18.2383C35.5277 17.6543 36.2819 16.7655 36.7001 15.7132C36.7427 15.606 36.6257 15.5102 36.5247 15.566C35.6163 16.0677 34.6366 16.4289 33.6189 16.637C33.5763 16.6457 33.5324 16.6312 33.5025 16.5996C32.7388 15.7938 31.7335 15.2572 30.6375 15.0718C29.5186 14.8825 28.3685 15.0699 27.3675 15.6047C26.3666 16.1395 25.5714 16.9914 25.1068 18.0268C24.6651 19.0112 24.5459 20.1086 24.7638 21.1625C24.7807 21.2443 24.7166 21.3215 24.6333 21.3163C22.6532 21.1934 20.7186 20.6667 18.9486 19.7681C17.1831 18.8717 15.6197 17.6248 14.3536 16.1041C14.2974 16.0366 14.1909 16.0454 14.15 16.1231C13.756 16.8706 13.5497 17.7039 13.5503 18.5508C13.5487 19.3937 13.7556 20.224 14.1525 20.9677C14.5494 21.7114 15.1241 22.3454 15.8253 22.8133C15.0816 22.793 14.3525 22.6092 13.6893 22.2758C13.6039 22.2329 13.5014 22.294 13.5058 22.3896C13.5575 23.5011 13.9656 24.6171 14.6719 25.4732C15.4236 26.3843 16.4668 27.0078 17.6253 27.2383C17.1793 27.374 16.7164 27.4455 16.2503 27.4508C15.9966 27.4478 15.7434 27.4291 15.4922 27.3947C15.399 27.382 15.323 27.4705 15.3556 27.5586C15.7011 28.493 16.3115 29.3083 17.1141 29.9035C17.9722 30.5397 19.0072 30.8927 20.0753 30.9132C18.2718 32.3323 16.0451 33.1068 13.7503 33.1133C13.5145 33.114 13.2788 33.1064 13.0436 33.0904C12.9111 33.0813 12.8502 33.2579 12.9644 33.3257C15.2004 34.6526 17.756 35.3539 20.3628 35.3507C22.2874 35.3707 24.1967 35.007 25.9792 34.2809C27.7616 33.5547 29.3816 32.4806 30.7443 31.1214C32.107 29.7621 33.1852 28.145 33.916 26.3644C34.6467 24.5838 35.0153 22.6754 35.0003 20.7507V20.151C35.0003 20.1115 35.019 20.0744 35.0504 20.0506C35.8983 19.4104 36.6439 18.6461 37.2625 17.784Z" fill="white"/>
</svg>
